<svg width="27" height="54" viewBox="0 0 27 54" fill="none" xmlns="http://www.w3.org/2000/svg">
<path fill-rule="evenodd" clip-rule="evenodd" d="M8.03276 2.00104C10.3726 1.97526 11.9279 2.41139 12.8202 4.02783C13.7244 5.66603 13.4102 7.31195 12.1184 9.0027C11.7614 9.47001 11.1117 10.0409 10.3673 10.487C9.60124 10.9459 8.90433 11.1713 8.4511 11.154C8.1636 11.1431 7.80464 11.0217 7.46971 10.7908C7.13436 10.5597 6.90049 10.2724 6.79564 10.0151C6.77708 9.96953 6.74732 9.82537 6.80341 9.55806C6.857 9.30271 6.9747 9.00871 7.14507 8.72683C7.3158 8.44434 7.51706 8.21098 7.70913 8.05632C7.90971 7.89481 8.03288 7.87107 8.06293 7.86983L7.98055 5.87153C7.37532 5.89648 6.85183 6.17884 6.45478 6.49856C6.04923 6.82513 5.70188 7.24812 5.43341 7.69231C5.16457 8.13711 4.95248 8.64012 4.84605 9.14731C4.74212 9.64255 4.72213 10.2265 4.94349 10.7698C5.22546 11.4618 5.75113 12.0354 6.33473 12.4376C6.91874 12.8401 7.63811 13.1245 8.37498 13.1526C9.40422 13.1918 10.507 12.7348 11.3952 12.2026C12.3049 11.6575 13.164 10.9284 13.7077 10.2169C15.3158 8.11214 15.9751 5.60488 14.5711 3.06133C13.1165 0.425983 10.5271 -0.0265626 8.01072 0.00116229C6.47455 0.0180877 5.16652 0.208511 4.03199 0.828697C2.882 1.45734 2.03407 2.4582 1.27468 3.8476C0.284273 5.65966 -0.0156326 7.8327 0.0609056 9.94172C0.137789 12.0603 0.597047 14.1941 1.20465 15.9948C1.87784 17.9897 2.94709 19.9687 3.83048 21.4292C4.27504 22.1641 4.67868 22.7777 4.97197 23.2088C5.11873 23.4245 5.23815 23.5948 5.3216 23.7123C5.36334 23.771 5.39611 23.8166 5.41883 23.8479L5.44525 23.8843L5.45256 23.8943L5.4547 23.8972L5.45539 23.8981L5.45563 23.8984C5.45573 23.8986 5.45581 23.8987 6.26086 23.3055C7.0659 22.7122 7.06596 22.7123 7.06602 22.7124L7.06598 22.7124L7.06504 22.7111L7.06015 22.7044L7.0387 22.6749C7.01935 22.6482 6.99007 22.6075 6.95193 22.5538C6.87564 22.4465 6.764 22.2872 6.62548 22.0837C6.34824 21.6762 5.96452 21.0929 5.54177 20.394C4.69056 18.9868 3.70547 17.1506 3.09967 15.3553C2.54258 13.7044 2.1283 11.7625 2.05959 9.86919C1.99053 7.96631 2.27298 6.19123 3.02965 4.8068C3.6843 3.60905 4.29707 2.96311 4.99131 2.58361C5.70101 2.19565 6.62075 2.0166 8.03276 2.00104ZM16.0186 14.1663C15.4718 14.0661 14.8263 14.1828 14.2826 14.5186C13.8434 14.79 13.6025 15.0626 13.4472 15.374C13.2811 15.707 13.1749 16.1609 13.1336 16.8565C13.1138 17.1906 13.1822 17.6736 13.3012 18.2128C13.1847 17.1542 13.556 16.078 14.6002 15.4618L15.6167 17.1843C15.4537 17.2805 15.335 17.4216 15.2946 17.6473C15.3674 17.6532 15.4545 17.6555 15.5554 17.651C16.0996 17.6267 16.6186 17.4321 16.8521 17.2102C17.4218 16.669 17.5622 15.8936 17.1705 15.0286C16.9533 14.5487 16.5455 14.2629 16.0186 14.1663ZM13.3896 18.588C13.5878 19.0985 14.0492 19.3617 14.36 19.4778C14.7629 19.6283 15.223 19.6678 15.6445 19.649C16.464 19.6124 17.5217 19.3329 18.2298 18.6601C19.515 17.4389 19.6758 15.713 18.9925 14.2037C18.4677 13.0445 17.4571 12.3966 16.3792 12.1991C15.3213 12.0052 14.1755 12.2339 13.2315 12.8171C12.5301 13.2504 12.0052 13.7838 11.6573 14.4816C11.3202 15.1578 11.1859 15.9162 11.1371 16.7379C11.0803 17.6946 11.4056 18.9906 11.6835 19.9267C11.8302 20.4207 11.9793 20.8637 12.0915 21.1829C12.1478 21.3428 12.1951 21.4726 12.2287 21.5631C12.2454 21.6084 12.2588 21.6439 12.2682 21.6686L12.2791 21.6974L12.2822 21.7054L12.2831 21.7078L12.2834 21.7085L12.2835 21.7088C12.2835 21.7089 12.2836 21.709 13.2165 21.3489C14.1494 20.9889 14.1494 20.989 14.1495 20.989L14.1491 20.9881L14.1472 20.983L14.1385 20.9604L14.1268 20.9292L14.104 20.8681C14.0739 20.7868 14.0304 20.6676 13.9782 20.5193C13.8737 20.2221 13.7356 19.8116 13.6008 19.3574C13.5242 19.0995 13.4527 18.8402 13.3896 18.588ZM5 24.8707C2.23858 24.8707 0 27.1093 0 29.8707V48.0446C0 50.806 2.23857 53.0446 5 53.0446H14.9565C17.4968 53.0446 19.5947 51.1502 19.9143 48.697C23.8893 48.2307 27 44.0483 27 38.9576C27 33.867 23.8893 29.6845 19.9143 29.2182C19.5947 26.7651 17.4968 24.8707 14.9565 24.8707H5ZM19.9565 45.8887C23.0705 45.2854 25.4348 42.3241 25.4348 38.762C25.4348 35.1998 23.0705 32.2386 19.9565 31.6352V45.8887Z" fill="white"/>
</svg>
